<mxfile host="65bd71144e">
    <diagram name="Page-1" id="j5j68vjCQJwh_yRyHmvW">
        <mxGraphModel dx="702" dy="563" grid="1" gridSize="10" guides="1" tooltips="1" connect="1" arrows="1" fold="1" page="1" pageScale="1" pageWidth="1600" pageHeight="900" math="0" shadow="0">
            <root>
                <mxCell id="0"/>
                <mxCell id="1" parent="0"/>
                <mxCell id="12" value="" style="rounded=0;whiteSpace=wrap;html=1;strokeColor=#000000;fontSize=14;fontColor=#000000;fillColor=none;" parent="1" vertex="1">
                    <mxGeometry x="1420" y="240" width="140" height="170" as="geometry"/>
                </mxCell>
                <mxCell id="SL-GG13H3_gjAQ_EnrTm-3" value="&lt;font size=&quot;1&quot; color=&quot;#00bef2&quot;&gt;&lt;b style=&quot;font-size: 16px;&quot;&gt;&amp;nbsp; &amp;nbsp; &amp;nbsp; &amp;nbsp; &amp;nbsp; &amp;nbsp; &amp;nbsp; &amp;nbsp; &amp;nbsp; &amp;nbsp; &amp;nbsp; Virtual Network&lt;/b&gt;&lt;/font&gt;" style="rounded=0;whiteSpace=wrap;html=1;fontColor=#0000FF;strokeColor=#00BEF2;dashed=1;container=0;fillColor=none;labelPosition=left;verticalLabelPosition=top;align=right;verticalAlign=bottom;dashPattern=8 8;strokeWidth=2;" parent="1" vertex="1">
                    <mxGeometry x="620" y="130" width="490" height="540" as="geometry"/>
                </mxCell>
                <mxCell id="SL-GG13H3_gjAQ_EnrTm-8" value="PUB Subnet" style="points=[[0,0],[0.25,0],[0.5,0],[0.75,0],[1,0],[1,0.25],[1,0.5],[1,0.75],[1,1],[0.75,1],[0.5,1],[0.25,1],[0,1],[0,0.75],[0,0.5],[0,0.25]];outlineConnect=0;gradientColor=none;html=1;whiteSpace=wrap;fontSize=12;fontStyle=0;container=1;pointerEvents=0;collapsible=0;recursiveResize=0;shape=mxgraph.aws4.group;grIcon=mxgraph.aws4.group_security_group;grStroke=0;strokeColor=#248814;fillColor=#E9F3E6;verticalAlign=top;align=left;spacingLeft=30;fontColor=#248814;dashed=0;" parent="1" vertex="1">
                    <mxGeometry x="660" y="160" width="150" height="450" as="geometry"/>
                </mxCell>
                <mxCell id="SL-GG13H3_gjAQ_EnrTm-9" value=" 10.1.10.0/24" style="fillColor=none;strokeColor=#147EBA;dashed=1;verticalAlign=top;fontStyle=1;fontColor=#147EBA;" parent="SL-GG13H3_gjAQ_EnrTm-8" vertex="1">
                    <mxGeometry x="20" y="40" width="100" height="30" as="geometry"/>
                </mxCell>
                <mxCell id="SL-GG13H3_gjAQ_EnrTm-7" value="&lt;font color=&quot;#000000&quot;&gt;Azure Load Balancer&lt;/font&gt;" style="verticalLabelPosition=bottom;html=1;verticalAlign=top;align=center;strokeColor=none;fillColor=#00BEF2;shape=mxgraph.azure.azure_load_balancer;" parent="SL-GG13H3_gjAQ_EnrTm-8" vertex="1">
                    <mxGeometry x="45" y="182" width="50" height="35" as="geometry"/>
                </mxCell>
                <mxCell id="SL-GG13H3_gjAQ_EnrTm-12" value="APP Subnet" style="points=[[0,0],[0.25,0],[0.5,0],[0.75,0],[1,0],[1,0.25],[1,0.5],[1,0.75],[1,1],[0.75,1],[0.5,1],[0.25,1],[0,1],[0,0.75],[0,0.5],[0,0.25]];outlineConnect=0;gradientColor=none;html=1;whiteSpace=wrap;fontSize=12;fontStyle=0;container=1;pointerEvents=0;collapsible=0;recursiveResize=0;shape=mxgraph.aws4.group;grIcon=mxgraph.aws4.group_security_group;grStroke=0;strokeColor=#147EBA;fillColor=#E6F2F8;verticalAlign=top;align=left;spacingLeft=30;fontColor=#147EBA;dashed=0;" parent="1" vertex="1">
                    <mxGeometry x="890" y="160" width="150" height="450" as="geometry"/>
                </mxCell>
                <mxCell id="SL-GG13H3_gjAQ_EnrTm-13" value="10.1.20.0/24" style="fillColor=none;strokeColor=#147EBA;dashed=1;verticalAlign=top;fontStyle=1;fontColor=#147EBA;" parent="SL-GG13H3_gjAQ_EnrTm-12" vertex="1">
                    <mxGeometry x="25" y="40" width="100" height="30" as="geometry"/>
                </mxCell>
                <mxCell id="SL-GG13H3_gjAQ_EnrTm-14" value="&lt;font style=&quot;background-color: rgb(255, 255, 255);&quot; color=&quot;#000000&quot;&gt;AKS&lt;/font&gt;" style="image;aspect=fixed;html=1;points=[];align=center;fontSize=12;image=img/lib/azure2/containers/Kubernetes_Services.svg;" parent="SL-GG13H3_gjAQ_EnrTm-12" vertex="1">
                    <mxGeometry y="300" width="68" height="60" as="geometry"/>
                </mxCell>
                <mxCell id="SL-GG13H3_gjAQ_EnrTm-16" value="&lt;b&gt;&lt;font style=&quot;font-size: 14px;&quot;&gt;Region France Centre&lt;/font&gt;&lt;/b&gt;" style="points=[[0,0],[0.25,0],[0.5,0],[0.75,0],[1,0],[1,0.25],[1,0.5],[1,0.75],[1,1],[0.75,1],[0.5,1],[0.25,1],[0,1],[0,0.75],[0,0.5],[0,0.25]];outlineConnect=0;gradientColor=none;html=1;whiteSpace=wrap;fontSize=12;fontStyle=0;container=0;pointerEvents=0;collapsible=0;recursiveResize=0;shape=mxgraph.aws4.group;grIcon=mxgraph.aws4.group_region;strokeColor=#147EBA;fillColor=none;verticalAlign=top;align=left;spacingLeft=30;fontColor=#147EBA;dashed=1;strokeWidth=3;" parent="1" vertex="1">
                    <mxGeometry x="470" y="60" width="690" height="640" as="geometry"/>
                </mxCell>
                <mxCell id="4" value="" style="aspect=fixed;html=1;points=[];align=center;image;fontSize=12;image=img/lib/azure2/networking/Virtual_Networks.svg;dashed=1;dashPattern=12 12;strokeColor=#00BEF2;fontColor=#00BEF2;fillColor=none;" parent="1" vertex="1">
                    <mxGeometry x="621" y="116" width="50.25" height="30" as="geometry"/>
                </mxCell>
                <mxCell id="7" value="" style="group" parent="1" vertex="1" connectable="0">
                    <mxGeometry x="1450" y="500" width="80" height="150" as="geometry"/>
                </mxCell>
                <mxCell id="6" value="&lt;font&gt;&lt;b&gt;&lt;br&gt;&lt;br&gt;&lt;br&gt;&lt;/b&gt;&lt;/font&gt;" style="rounded=0;whiteSpace=wrap;html=1;strokeColor=#000000;fontSize=14;fontColor=#000000;fillColor=none;" parent="7" vertex="1">
                    <mxGeometry width="80" height="100" as="geometry"/>
                </mxCell>
                <mxCell id="ft4ccJNR_fjNTOpSbePP-54" value="Github" style="dashed=0;outlineConnect=0;html=1;align=center;labelPosition=center;verticalLabelPosition=bottom;verticalAlign=top;shape=mxgraph.weblogos.github" parent="7" vertex="1">
                    <mxGeometry x="12.5" y="20" width="55" height="50" as="geometry"/>
                </mxCell>
                <mxCell id="34" style="edgeStyle=none;rounded=0;html=1;dashed=1;dashPattern=8 8;fontSize=13;" parent="1" source="14" target="33" edge="1">
                    <mxGeometry relative="1" as="geometry"/>
                </mxCell>
                <mxCell id="35" value="http://hello-world-aks.ghamacha.com" style="edgeLabel;html=1;align=center;verticalAlign=middle;resizable=0;points=[];fontSize=13;" parent="34" vertex="1" connectable="0">
                    <mxGeometry x="-0.2219" y="3" relative="1" as="geometry">
                        <mxPoint y="1" as="offset"/>
                    </mxGeometry>
                </mxCell>
                <mxCell id="14" value="&lt;b&gt;Users&lt;/b&gt;" style="sketch=0;outlineConnect=0;fontColor=#232F3E;gradientColor=none;fillColor=#232F3D;strokeColor=none;dashed=0;verticalLabelPosition=top;verticalAlign=bottom;align=center;html=1;fontSize=12;fontStyle=0;aspect=fixed;pointerEvents=1;shape=mxgraph.aws4.users;labelPosition=center;" parent="1" vertex="1">
                    <mxGeometry x="80" y="38" width="78" height="78" as="geometry"/>
                </mxCell>
                <mxCell id="18" value="Docker HUB" style="shape=image;verticalLabelPosition=bottom;labelBackgroundColor=default;verticalAlign=top;aspect=fixed;imageAspect=0;image=data:image/png,iVBORw0KGgoAAAANSUhEUgAAAbgAAAE1CAYAAACV5PW1AAAACXBIWXMAAAsSAAALEgHS3X78AAAROklEQVR4nO3d3W0bZ9oG4NtBzu2PBTDqwN4KrA6sDqIAPLe3gtAVrHJOYOUO7AqWqmCtClZiAYRVgb6DGSqUTFIU/17OzHUBRCxK5jyIkdx+3t9X9/f3AZL+YDpM8mfpOl5qMuq9Kl0DHKNfShcAAPsg4ABoJQEHQCsJOABaScAB0EoCDoBWEnAAtJKAA6CVBBwArSTgAGglAQdAKwk4AFpJwAHQSgIOgFYScAC0koADoJUEHACtJOAAaCUBB0ArCTgAWknAAdBKAg6AVhJwALSSgAOglQQcAK0k4ABoJQEHQCsJOABaScAB0EoCDoBWEnAAtJKAA6CVBBwArSTgAGglAQdAKwk4AFpJwAHQSgIOgFYScAC0koADoJV+LV0AHJGbJFeliwB249X9/X3pGgBg5wxRAtBKAg6AVhJwALSSgAOglQQcAK0k4ABoJQEHQCvZ6L1n/cF0mOTP0nW81GTUe7Xq+/3BtIkbKD9PRr3hsm+29c8KukoHB0ArCTgAWknAAdBKAg6AVhJwALSSgAOglQQcAK0k4ABoJQEHQCsJOIAd6w+mb/qD6ZvSdXSdgAPYvcsk3/uD6WnhOjpNwAHsUH8wPUvyIclvSf7TH0wvdHNlCDiAHamD7PLJ2x+TjPuD6bvDV9RtAg5gdy6TvF7w/tsk/61vrOBABBzADswNTa7yZ38w/a6bOwwBB7ClJUOTy+jmDkTAAWzvMouHJleZdXMnuy+HRMABbGXNocll3qbaTmDIcg8EHMCGXjg0uczrVEOW51sXxCMCDmBzl3n50OQy/+4Pphc7+iwi4AA2Up9SsunQ5DIf+4Pp5Y4/s7MEHMBmLvf0ub/3B9Ox00+2J+AAXqhe4v/bHh/xPtXpJ0JuCwIO4AXq0Pl0gEe9jZDbioADeJlhdrew5DlCbgsCDmBN9absjwd+rJDbkIADWN+w0HOF3AYEHMAa6nA5K1jC2+xv5WYrCTiA9XzK4ebelvlgn9z6BBzAes5LF1D7vT+YHmIVZ+MJOIBn1Acq73Pf20v9q66JFQQcwPPOSxewwKVbCFYTcAAr1FsDdn3m5C68ThVyVlYuIeAAVjvmocC3Kbd14egJOIDVzksX8IyP5uMWE3AAS9TDk29L17EGQ5ULCDiA5ZrSGb2OTeA/EXAAy52WLuAFPhiqfEzAASx3jKsnV7kwVPk3AQewQH8wPS1dwwZ+y2HuqmsEAQew2GnpAjb0qV4c03mv7u/vS9cAcHT6g+k4yfvSdWzoy2TUOy9dRGk6OIDFmhpuSXUg80npIkoTcABPtOSMx2HpAkoTcAA/a0PAdb6LE3AAP2tDwCXHf8zYXgk4gJ+1JeA6vWVAwAH8rC0B97o/mJ6XLqIUAQfws9elC9ihzh7fdVT74PqD6fEUs77Pk1FvuOyb/cF0mOTPg1WzI5NR79Wq7/uzOh5r/FmN07wl71eTUe+0xIPrE0z+U+LZe/R/k1HvR+kiDk0HB9B+neziBBzAY6elC9gDAQdAK33o4i0DAg7gsbYGwWnpAg5NwAE81pYtAk+dli7g0AQcQDecli7g0AQcQDe8LV3AoQk4gI5o6C3lGxNwAN3R1vnFhX4tXQAAB/NohWi9deBd/f4s/E7q1/zvWTW8eZ1k/pSUH0m+17++mb0mo97NRhVvQcABdMd5fUfcSXZ3fNui8Pvw9I3+YJpUYXiTKgC/J/m+z+ATcADd8VuS3ws+/239egjA/mB6l2Q8e01Gve8Lf+cGBBwAJb1OFXgfkqQ/mN6mCruvk1Hv6zYfLOAAOCazLvP3uru7THKxyVCmVZQAHKvXST4m+V9/MB2/dJuDgAOgCd4n+U8ddGttdxBwAI/tbJEDe/E+yX/rC4pXEnAAj3Xu5uuG+rM/mH5f1c0JOIDHbkoXwNrepurmPi36poADeOymdAG82L/qubmT+TcFHMCcyag3Ll0DG3mf5Pt8N2cfHMDPblPtx6JZXqfq5s6SnOvgAH5mJWWzvU/yXcAB/EzANZ+AA1hgXLoAtjYUcABPWGjSeFeTUW8s4AAWuy5dABsbJrYJACyz1VUtFHM168AFHMBiAq6ZLma/EHAAC9Q3S9+WroMXuZ2/JFXAASw3Ll0ALzKc/0LAASx38fyPcCRuJ6Pe5fwbAg5gCcOUjTJ8+oaAA1jtsnQBPOun7i0RcADPuSxdAM8aLnpTwAGsMBn1bpJ8KV0HS10v6t4SAQewjmHpAlhq4W3eiYADeFbdxV2VroOffFt1bqiAA1jP0k6BIu7yzJ+JgANYQ71lwFzc8bioO+ulBBzA+j6l6hwo63oy6g2f+6FX9/f3B6gFoB36g+lFko+l6+iwuySndUe90q8HKAag8fqD6Wmq1ZTvy1bSecN1wi3RwQGs1B9Mz5OcR7Adg2+TUe9s3R/WwQE80R9MT1LNt50l+a1sNdSuU/1FY20CDiAPoXaW6n+ib4sWw1N3Sc4no96Pl/wmQ5RAJ/UH0zdJTuuXTu24/WPdebd5OjigE+pFIidJ3qUKNV1aM/yxSbglAg5ogf5g+i7Jm/rLk/r1JlWYnUR31lR/LDtIeR0PAdcfTIdJ/txBQQCwra3CLXl8ksm77WoBgJ3YOtySx0OUAg6Aku6SnK26IeAl5js4Y9QAlHKb6giu8a4+8JfkYXURAJTwLcm7TVdLLjMbonyz8qcAYD/+ORn1LvbxwbOAM/8GwCFdpzqdZKdd2zz74AA4pLtUl5UO9/2gWcCd7vtBAHTetySfnruJe1d0cADs21Wqe9zGh3yogANgX4oE24xFJgDs0l2Sr6mC7aZkIbOAe12yCAAa7zrJRZKvL723bV8MUQKwqatU3drX0t3aIgIOgHVdJxnPXsfSqS0j4ABY5CrJTf0al1oosg0BB9Add0nmTw75Mff199nXx96ZrevX/mB6UroIALa2kzvU2uSXVNe5A9Bcs6X5zPnl+R8B4MhdtmVYcZcEHEDz7eW6maYTcADN9u0Y96Adg1+auPQTgAe6tyV0cADNdatJWU7AATTXsHQBx0zAATTTnX1vqwk4gGYy9/YMAQfQPHcRcM+aBdxd0SoAeAkbu9cwC7jvK38KgGOie1uDIUqAZvliY/d6BBxAswxLF9AUhigBmkP39gKzgDNZCXD8hqULaBJDlADNoHt7oVnAjUsWAcCzhqULaBodHMDx071twCITgOM3LF1AE/2SJHbEAxwt3duG5ocob4tVAcAyw9IFNNV8wN2UKgKAhf7SvW1uPuDMwwEcj7vo3rYyH3Dm4QCOx4X1EduZD7hxqSIAeOQ2bgzYmg4O4PgMdW/be3V/f//wRX8wvV/xswDs3/Vk1HtXuog2eHqSyXWRKgCY+VS6gLZ4GnA3JYoAIEnybTLqjUsX0RZPA85WAYAy7qJ726mnATcuUQQAubCpe7d0cADl2RawB48Crl6W6kxKgMP6ZFvA7i26D04XB3A43yaj3tfSRbSRgAMox8KSPVoUcONDFwHQURaW7NGjk0xmnGgCsHdOLNmzRR1c4kQTgH07L11A2y0LuPEhiwDomL8mo571Dnsm4AAO6zYuMj0IAQdwWOf2vB3GwoCr/+WbhwPYrb8cpnw4yzq4JLHxEGB3DE0e2KqAGx+qCIAOMDR5YEsDrm6j7w5XCkBrfTY0eXirOrhEFwewrevJqDcsXUQXPRdw5uEANncXG7qLEXAA+zO0obuclQFXT4heHagWgDb5Nhn1XGJa0HMdXKKLA3ip2xiaLE7AAeyeLQFH4NmAq+8qcqoJwHpsCTgS63RwSXK5zyIAWuLKloDjIeAAduM2yVnpIvjbWgFXjyV/23MtAE12Zt7tuKzbwSUWmwAs84f9bsfn1f39/do/3B9MfyR5vb9yABrny2TUOy9dBD97SQeX6OIA5l0Lt+P10oCzKx+gcpfktHQRLPeigKvHmO2JA7ruLsmpRSXH7aUdXKKLA/hkUcnxe9EikxmLTYAO+2wzdzNs0sElujigm74It+bYNOAud1kEQANcWTHZLBsFXH0A85fdlgJwtK7jGK7G2bSDS5LhrooAOGJWTDbUxgFXd3Fu+wbaTLg12DYdXKKLA9prFm62AzTUVgFXX+qniwPa6Fy4Ndu2HVyiiwPa54/JqOfs3YbbOuB0cUDL/DEZ9S5LF8H2dtHBJbo4oB2EW4vsJODqLs6N30CTCbeW2VUHlySfdvhZAIck3FpoZwHndBOgoYRbS+2yg0uqLu5ux58JsC/CrcV2GnD1bn83DQBNINxabqP74J7TH0xvkvy28w8G2A3h1gG7HqKcOd/T5wJsS7h1xF4CzrYB4EgJtw75dY+ffZ7kJsnrPT4DYB0OTu6gfQ1RzhacDPf1+QBrEm4dtZdFJvP6g+k4yfu9PgRgseu4FaCz9tbBzTmPvXHA4V1H59Zpew+4+oST4b6fAzDnS9zE3Xl7H6Kc6Q+mX5N8OMjDgC77azLqORuXgwxRzpzHUCWwX38IN2YOFnD1UMHZoZ4HdMpdkn/Y48a8Q3Zwsw3gnw/5TKD1rpO8s5iEpw42BzfP1gFgR74k+WQxCYvs8ySTVc7ilBNgO/+cjHpuL2GpIh1ckvQH03dJ/lvk4UCT3SU5q6c8YKmDzsHNq8fL/yj1fKCRrpKcCDfWUayDm+kPppdJfi9aBNAEnyej3rB0ETRH8YBLLDoBVjIkyUaKDVE+cZZqqS/APEOSbOwoOrgk6Q+mJ0m+x8pKoGKVJFs5lg5udijzaRznBV13nepUEuHGVo4m4JKHlZWnEXLQVX/FFTfsyNEMUc7rD6bnSf5dug7gYG5TXUw6Ll0I7XFUHdxMfWCqPXLQDX+lOktyXLoQ2uUoO7gZnRy0mq6NvTrKDm5GJwet9Tm6NvbsqDu4GZ0ctMZVqtP/LSJh7xoRcEnSH0xPk3yNfXLQRHdJhpb+c0iNCbjk4QaCcYQcNIk72yiiUQGXPITc1yS/la4FWOk6VbCNSxdCNzUu4JKkP5i+SdXJvS1cCvCzu1TBdlm6ELrtqFdRLlMPdZwm+Va4FOCxz6kOR74sXQg0soOb1x9ML5J8LF0HdNyXVItIbkoXAjOND7jkYRvBRSw+gUO7ShVs49KFwFOtCLjkYfHJZczLwSEINo5eawIueVh8cpnkQ+FSoK1uUwXbZelC4DmtCriZ/mD6KckwhixhVwQbjdPKgEsMWcKOCDYaq7UBN9MfTIdJ/ixdBzTMVZKLyaj3tXQhsKnWB1zycI7lZZx+As+xeITW6ETAJQ8LUD5FNweL2MdG63Qm4GbqubmLJO9L1wKF3aX6b+HCQci0UecCbsZKSzrsOlWoXZYuBPapswGXPAxbDuOoL7rhS6pgc9kondDpgJvpD6YnqRahGLakbW5TDUNeGoakawTcnHq15TCCjma7S3Vnom6NThNwC/QH07NUf+u1rYAm+Zbkq7k1qAi4FepbCoYRdByv61TD618t8YfHBNwaDF1yZIQarEHAvUAddOdJfi9bCR00C7WxeTVYj4DbQL3q8jzVySj20bEvOjXYgoDbUj1Pdx7Dl2zvLsk41QrIr5b1w3YE3I7UXd2nJGexKIX1XacONQccw24JuD2otxnMXoYwmXebKtDG0aXBXgm4PRN2nTcfaGNzaXA4Au6A6rA7jWHMNpsNOX6PQIOiBFwh9ZzdLPA+FC2GTd2mCrJZmI3LlgPME3BHot5jN3tZkXl8HoVZku/mz+C4CbgjVQfeu1SB9y6GNA/lLn8H2U2qIBuXLAjYjIBriPruuvnAO0nytmBJTXeV5Ef+DrKb6MqgVQRcw9Wd3kn9epfkTQxxJtVij1mAPfqnEINuEHAtNdfxzf6ZVN1fUoVhE4c8b1N1WsnfXVfyd3j9cE4jMCPgOq4/mM5CMHkchjMn9WvXxgvem3VaD8x/AZv6fzTwCg6zn+zGAAAAAElFTkSuQmCC;fontStyle=1" parent="1" vertex="1">
                    <mxGeometry x="1300" y="530" width="69.77" height="49" as="geometry"/>
                </mxCell>
                <mxCell id="31" value="&lt;font size=&quot;1&quot; color=&quot;#00bef2&quot;&gt;&lt;b style=&quot;font-size: 14px;&quot;&gt;&amp;nbsp; &amp;nbsp; &amp;nbsp; &amp;nbsp; &amp;nbsp; &amp;nbsp; &amp;nbsp; &amp;nbsp; &amp;nbsp; &amp;nbsp; &amp;nbsp;&amp;nbsp;&lt;/b&gt;&lt;/font&gt;" style="rounded=0;whiteSpace=wrap;html=1;fontColor=#0000FF;strokeColor=#6666FF;dashed=1;container=0;fillColor=none;labelPosition=left;verticalLabelPosition=top;align=right;verticalAlign=bottom;" parent="1" vertex="1">
                    <mxGeometry x="900" y="254.5" width="130" height="210" as="geometry"/>
                </mxCell>
                <mxCell id="36" style="edgeStyle=none;rounded=0;html=1;entryX=0.05;entryY=0.5;entryDx=0;entryDy=0;entryPerimeter=0;dashed=1;dashPattern=8 8;fontSize=13;" parent="1" source="33" target="SL-GG13H3_gjAQ_EnrTm-7" edge="1">
                    <mxGeometry relative="1" as="geometry"/>
                </mxCell>
                <mxCell id="38" value="HTTP" style="edgeLabel;html=1;align=center;verticalAlign=middle;resizable=0;points=[];fontSize=13;" parent="36" vertex="1" connectable="0">
                    <mxGeometry x="-0.1139" y="-2" relative="1" as="geometry">
                        <mxPoint as="offset"/>
                    </mxGeometry>
                </mxCell>
                <mxCell id="33" value="OVH DNS" style="aspect=fixed;html=1;points=[];align=center;image;fontSize=12;image=img/lib/azure2/networking/DNS_Zones.svg;dashed=1;dashPattern=8 8;strokeColor=#6666FF;" parent="1" vertex="1">
                    <mxGeometry x="86" y="330" width="64" height="64" as="geometry"/>
                </mxCell>
                <mxCell id="39" style="edgeStyle=none;rounded=0;html=1;entryX=0;entryY=0.5;entryDx=0;entryDy=0;dashed=1;dashPattern=8 8;fontSize=13;" parent="1" source="SL-GG13H3_gjAQ_EnrTm-7" target="31" edge="1">
                    <mxGeometry relative="1" as="geometry"/>
                </mxCell>
                <mxCell id="aIGMJO4LzFssu3-EHcOt-48" value="Worker" style="verticalLabelPosition=bottom;html=1;verticalAlign=top;align=center;strokeColor=none;fillColor=#00BEF2;shape=mxgraph.azure.virtual_machine;" parent="1" vertex="1">
                    <mxGeometry x="940" y="330" width="50" height="40" as="geometry"/>
                </mxCell>
                <mxCell id="29" value="" style="shape=image;verticalLabelPosition=bottom;labelBackgroundColor=default;verticalAlign=top;aspect=fixed;imageAspect=0;image=data:image/svg+xml,PHN2ZyB4bWxucz0iaHR0cDovL3d3dy53My5vcmcvMjAwMC9zdmciIGZpbGw9Im5vbmUiIHZpZXdCb3g9IjAgMCAyNDQgMjU4IiBoZWlnaHQ9IjI1OCIgd2lkdGg9IjI0NCI+CjxwYXRoIGZpbGw9ImJsYWNrIiBkPSJNMzUuNTE5OSAyMDYuOTRIMjUuOTE5OVYyMDEuMjFINTEuNjM5OVYyMDYuOTRINDEuOTk5OVYyMzUuNkgzNS41MTk5VjIwNi45NFoiLz4KPHBhdGggZmlsbD0iYmxhY2siIGQ9Ik01OC40MzAyIDIzMUM2MS4wMzc2IDIzMC45ODYgNjMuNjI4NyAyMzAuNTg5IDY2LjEyMDIgMjI5LjgyTDY3LjEyMDIgMjM0LjU3QzY0LjE1NjYgMjM1LjYzNiA2MS4wMjk4IDIzNi4xNzggNTcuODgwMiAyMzYuMTdDNDkuOTgwMiAyMzYuMTcgNDcuMjQwMiAyMzIuNSA0Ny4yNDAyIDIyNi40NlYyMTkuOEM0Ny4yNDAyIDIxNC40OCA0OS42MjAyIDIwOS45OSA1Ny42NzAyIDIwOS45OUM2NS43MjAyIDIwOS45OSA2Ny41MzAyIDIxNC42OSA2Ny41MzAyIDIyMC4xMVYyMjUuNDhINTMuNTMwMlYyMjYuNzdDNTMuNTIwMiAyMjkuNzcgNTQuNjAwMiAyMzEgNTguNDMwMiAyMzFaTTUzLjUyMDIgMjIwLjQySDYxLjUyMDJWMjE5LjE4QzYxLjUyMDIgMjE2LjggNjAuODAwMiAyMTUuMTggNTcuNzAwMiAyMTUuMThDNTQuNjAwMiAyMTUuMTggNTMuNTIwMiAyMTYuODMgNTMuNTIwMiAyMTkuMThWMjIwLjQyWiIvPgo8cGF0aCBmaWxsPSJibGFjayIgZD0iTTg0LjM1MDYgMjE1LjcxOUM4Mi4wMzcxIDIxNi43NzEgNzkuODA3MyAyMTcuOTk4IDc3LjY4MDYgMjE5LjM4OVYyMzUuNTk5SDcxLjM5MDZWMjEwLjQ0OUg3Ni43MDA2TDc3LjEyMDYgMjEzLjIzOUM3OS4xNjkxIDIxMS44NTMgODEuMzkxNiAyMTAuNzQ0IDgzLjczMDYgMjA5LjkzOUw4NC4zNTA2IDIxNS43MTlaIi8+CjxwYXRoIGZpbGw9ImJsYWNrIiBkPSJNOTkuNzI5NSAyMTUuNzE5Qzk3LjQxOTIgMjE2Ljc3MSA5NS4xOTI3IDIxNy45OTggOTMuMDY5NSAyMTkuMzg5VjIzNS41OTlIODYuNzY5NVYyMTAuNDQ5SDkyLjA4OTVMOTIuNDk5NSAyMTMuMjM5Qzk0LjU0OTEgMjExLjg1NSA5Ni43NzE0IDIxMC43NDYgOTkuMTA5NSAyMDkuOTM5TDk5LjcyOTUgMjE1LjcxOVoiLz4KPHBhdGggZmlsbD0iYmxhY2siIGQ9Ik0xMjAuNzk5IDIzNS41OTlIMTE1LjYzOUwxMTUuMTY5IDIzMy44OTlDMTEyLjkzOCAyMzUuMzQ0IDExMC4zMzcgMjM2LjExNSAxMDcuNjc5IDIzNi4xMTlDMTAzLjA4OSAyMzYuMTE5IDEwMS4xMjkgMjMyLjk2OSAxMDEuMTI5IDIyOC42MjlDMTAxLjEyOSAyMjMuNTE5IDEwMy4zNDkgMjIxLjU1OSAxMDguNDU5IDIyMS41NTlIMTE0LjQ1OVYyMTguOTE5QzExNC40NTkgMjE2LjEyOSAxMTMuNjg5IDIxNS4xNDkgMTA5LjY1OSAyMTUuMTQ5QzEwNy4zMDUgMjE1LjE3MiAxMDQuOTYgMjE1LjQzMyAxMDIuNjU5IDIxNS45MjlMMTAxLjg3OSAyMTEuMTI5QzEwNC42ODkgMjEwLjM0OCAxMDcuNTkyIDIwOS45NDggMTEwLjUwOSAyMDkuOTM5QzExOC40MDkgMjA5LjkzOSAxMjAuNzI5IDIxMi43MjkgMTIwLjcyOSAyMTkuMDI5TDEyMC43OTkgMjM1LjU5OVpNMTE0LjQ5OSAyMjYuMDk5SDEwOS44NDlDMTA3Ljc4OSAyMjYuMDk5IDEwNy4yMTkgMjI2LjY2OSAxMDcuMjE5IDIyOC41NzlDMTA3LjIxOSAyMzAuMzI5IDEwNy43ODkgMjMxLjEwOSAxMDkuNzQ5IDIzMS4xMDlDMTExLjQxNSAyMzEuMDg1IDExMy4wNDkgMjMwLjY0MSAxMTQuNDk5IDIyOS44MTlWMjI2LjA5OVoiLz4KPHBhdGggZmlsbD0iYmxhY2siIGQ9Ik0xNDAuMTU5IDIwNC43MkMxMzguOTczIDIwNC40NjMgMTM3Ljc2MyAyMDQuMzI2IDEzNi41NDkgMjA0LjMxQzEzNC4wNjkgMjA0LjMxIDEzMy43MDkgMjA1LjM5IDEzMy43MDkgMjA3LjMxVjIxMC40NkgxNDAuMTA5TDEzOS43NDkgMjE1LjQ2SDEzMy43NDlWMjM1LjZIMTI3LjQ0OVYyMTUuNDZIMTIzLjQ0OVYyMTAuNDZIMTI3LjQ0OVYyMDYuOTVDMTI3LjQ0OSAyMDEuNzQgMTI5Ljg3OSAxOTkuMTUgMTM1LjQ0OSAxOTkuMTVDMTM3LjI4MSAxOTkuMTQgMTM5LjEwNSAxOTkuMzg2IDE0MC44NjkgMTk5Ljg4TDE0MC4xNTkgMjA0LjcyWiIvPgo8cGF0aCBmaWxsPSJibGFjayIgZD0iTTE1Mi40NSAyMzYuMTE5QzE0My44MyAyMzYuMTE5IDE0MS41IDIzMS4zNjkgMTQxLjUgMjI2LjE5OVYyMTkuODQ5QzE0MS41IDIxNC42ODkgMTQzLjgzIDIwOS45MzkgMTUyLjQ1IDIwOS45MzlDMTYxLjA3IDIwOS45MzkgMTYzLjQ1IDIxNC42ODkgMTYzLjQ1IDIxOS44NDlWMjI2LjE5OUMxNjMuNCAyMzEuMzY5IDE2MS4wOCAyMzYuMTE5IDE1Mi40NSAyMzYuMTE5Wk0xNTIuNDUgMjE1LjMwOUMxNDkuMSAyMTUuMzA5IDE0Ny44IDIxNi44MDkgMTQ3LjggMjE5LjYzOVYyMjYuNDA5QzE0Ny44IDIyOS4yNDkgMTQ5LjEgMjMwLjc0OSAxNTIuNDUgMjMwLjc0OUMxNTUuOCAyMzAuNzQ5IDE1Ny4xIDIyOS4yNDkgMTU3LjEgMjI2LjQwOVYyMTkuNjM5QzE1Ny4xIDIxNi44MDkgMTU1LjgxIDIxNS4zMDkgMTUyLjQ1IDIxNS4zMDlaIi8+CjxwYXRoIGZpbGw9ImJsYWNrIiBkPSJNMTc5LjYxIDIxNS43MTlDMTc3LjI5OSAyMTYuNzY5IDE3NS4wNzIgMjE3Ljk5NiAxNzIuOTUgMjE5LjM4OVYyMzUuNTk5SDE2Ni42NVYyMTAuNDQ5SDE3MkwxNzIuNDEgMjEzLjIzOUMxNzQuNDYgMjExLjg1NSAxNzYuNjgyIDIxMC43NDYgMTc5LjAyIDIwOS45MzlMMTc5LjYxIDIxNS43MTlaIi8+CjxwYXRoIGZpbGw9ImJsYWNrIiBkPSJNMTk2LjkxIDIzNS42VjIxOEMxOTYuOTEgMjE2LjY2IDE5Ni4zNCAyMTYgMTk0LjkxIDIxNkMxOTIuNjAzIDIxNi4yNiAxOTAuMzczIDIxNi45ODEgMTg4LjM1IDIxOC4xMlYyMzUuNkgxODJWMjEwLjQ1SDE4Ni44TDE4Ny40MiAyMTIuNTdDMTkwLjU1NyAyMTEuMDAyIDE5My45ODcgMjEwLjEwNiAxOTcuNDkgMjA5Ljk0QzE5OC40NjEgMjA5Ljg0OSAxOTkuNDM2IDIxMC4wNTcgMjAwLjI4NSAyMTAuNTM2QzIwMS4xMzQgMjExLjAxNSAyMDEuODE2IDIxMS43NDIgMjAyLjI0IDIxMi42MkMyMDUuMzgyIDIxMS4wMTIgMjA4LjgzNCAyMTAuMDk4IDIxMi4zNiAyMDkuOTRDMjE2LjU0IDIwOS45NCAyMTguMDQgMjEyLjg4IDIxOC4wNCAyMTcuMzdWMjM1LjZIMjExLjc0VjIxOEMyMTEuNzQgMjE2LjY2IDIxMS4xNyAyMTYgMjA5Ljc0IDIxNkMyMDcuNDI5IDIxNi4yNCAyMDUuMTk0IDIxNi45NjIgMjAzLjE4IDIxOC4xMlYyMzUuNkgxOTYuOTFaIi8+CjxwYXRoIGZpbGw9ImJsYWNrIiBkPSJNMzIuNTg5OSAxOTIuN1YxODcuODhIMjguMTY5OVYxOTIuN0gyNS45MTk5VjE4MS4xMUgyOC4xNjk5VjE4NkgzMi41ODk5VjE4MS4xNEgzNC44NDk5VjE5Mi43SDMyLjU4OTlaTTQzLjEwOTkgMTkyLjdINDEuMzE5OUw0MS4xNTk5IDE5Mi4xNEM0MC4zODI3IDE5Mi42MjQgMzkuNDg1NCAxOTIuODggMzguNTY5OSAxOTIuODhDMzYuOTY5OSAxOTIuODggMzYuMjk5OSAxOTEuODggMzYuMjk5OSAxOTAuMzlDMzYuMjk5OSAxODguNjggMzcuMDU5OSAxODguMDMgMzguODM5OSAxODguMDNINDAuOTI5OVYxODcuMTZDNDAuOTI5OSAxODYuMjMgNDAuNjU5OSAxODUuOSAzOS4yNTk5IDE4NS45QzM4LjQ1MDMgMTg1LjkxMiAzNy42NDM1IDE4NS45OTkgMzYuODQ5OSAxODYuMTZMMzYuNTc5OSAxODQuNTZDMzcuNTU5MSAxODQuMzAyIDM4LjU2NzMgMTg0LjE3MSAzOS41Nzk5IDE4NC4xN0M0Mi4zMTk5IDE4NC4xNyA0My4xMTk5IDE4NS4wOSA0My4xMTk5IDE4Ny4xN0w0My4xMDk5IDE5Mi43Wk00MC45Mjk5IDE4OS41NEgzOS4zMTk5QzM4LjU5OTkgMTg5LjU0IDM4LjQwOTkgMTg5LjczIDM4LjQwOTkgMTkwLjM3QzM4LjQwOTkgMTkxLjAxIDM4LjU5OTkgMTkxLjIxIDM5LjI3OTkgMTkxLjIxQzM5Ljg1NjUgMTkxLjIwMiA0MC40MjI2IDE5MS4wNTQgNDAuOTI5OSAxOTAuNzhWMTg5LjU0Wk00Ny42Nzk5IDE5Mi44OEM0Ni42NjEzIDE5Mi44NjQgNDUuNjUwNiAxOTIuNjk5IDQ0LjY3OTkgMTkyLjM5TDQ0Ljk3OTkgMTkwLjhDNDUuODI3OSAxOTEuMDI5IDQ2LjcwMTUgMTkxLjE1IDQ3LjU3OTkgMTkxLjE2QzQ4LjU3OTkgMTkxLjE2IDQ4LjY3OTkgMTkwLjk1IDQ4LjY3OTkgMTkwLjMyQzQ4LjY3OTkgMTg5LjY5IDQ4LjU3OTkgMTg5LjU0IDQ3LjE1OTkgMTg5LjIyQzQ1LjAyOTkgMTg4LjcyIDQ0Ljc3OTkgMTg4LjIyIDQ0Ljc3OTkgMTg2LjU5QzQ0Ljc3OTkgMTg0Ljk2IDQ1LjU0OTkgMTg0LjE3IDQ4LjAzOTkgMTg0LjE3QzQ4LjkxOCAxODQuMTY5IDQ5Ljc5MzQgMTg0LjI2NyA1MC42NDk5IDE4NC40Nkw1MC40Mzk5IDE4Ni4xM0M0OS42NDgxIDE4NS45ODEgNDguODQ1NCAxODUuODk4IDQ4LjAzOTkgMTg1Ljg4QzQ3LjA4OTkgMTg1Ljg4IDQ2LjkyOTkgMTg2LjA5IDQ2LjkyOTkgMTg2LjYxQzQ2LjkyOTkgMTg3LjEzIDQ2LjkyOTkgMTg3LjMzIDQ4LjE2OTkgMTg3LjYxQzUwLjU5OTkgMTg4LjIzIDUwLjgyOTkgMTg4LjU0IDUwLjgyOTkgMTkwLjI1QzUwLjgyOTkgMTkxLjk2IDUwLjMwOTkgMTkyLjg4IDQ3LjY3OTkgMTkyLjg4Wk01Ny42Nzk5IDE5Mi43VjE4Ni44NkM1Ny42Nzk5IDE4Ni40MiA1Ny40ODk5IDE4Ni4xOSA1Ni45ODk5IDE4Ni4xOUM1Ni4xOTA5IDE4Ni4yNzYgNTUuNDE2MyAxODYuNTE3IDU0LjcwOTkgMTg2LjlWMTkyLjdINTIuNTE5OVYxODFMNTQuNjk5OSAxODEuMzJWMTg1QzU1LjY5NjQgMTg0LjUxNSA1Ni43ODI3IDE4NC4yNDMgNTcuODg5OSAxODQuMkM1OS4zMzk5IDE4NC4yIDU5Ljg4OTkgMTg1LjIgNTkuODg5OSAxODYuNjdWMTkyLjczTDU3LjY3OTkgMTkyLjdaTTYxLjY3OTkgMTgzLjE1VjE4MS4xNUg2My44NTk5VjE4My4xNUg2MS42Nzk5Wk02MS42Nzk5IDE5Mi43VjE4NC4zNEg2My44NTk5VjE5Mi43SDYxLjY3OTlaTTY1LjU5OTkgMTg0LjQxQzY1LjU5OTkgMTgyLjMxIDY2Ljg2OTkgMTgxLjA5IDY5LjgzOTkgMTgxLjA5QzcwLjkzMSAxODEuMDkgNzIuMDE4NCAxODEuMjE4IDczLjA3OTkgMTgxLjQ3TDcyLjgyOTkgMTgzLjM0QzcxLjg2OTIgMTgzLjE2NiA3MC44OTYxIDE4My4wNjkgNjkuOTE5OSAxODMuMDVDNjguMzU5OSAxODMuMDUgNjcuODU5OSAxODMuNTcgNjcuODU5OSAxODQuNzlWMTg5LjE4QzY3Ljg1OTkgMTkwLjQgNjguMzU5OSAxOTAuOTIgNjkuOTE5OSAxOTAuOTJDNzAuODk2MSAxOTAuOTAxIDcxLjg2OTIgMTkwLjgwNCA3Mi44Mjk5IDE5MC42M0w3My4wNzk5IDE5Mi41QzcyLjAxODQgMTkyLjc1MiA3MC45MzEgMTkyLjg4IDY5LjgzOTkgMTkyLjg4QzY2LjgzOTkgMTkyLjg4IDY1LjU5OTkgMTkxLjY2IDY1LjU5OTkgMTg5LjU2VjE4NC40MVpNNzcuODk5OSAxOTIuODhDNzQuODk5OSAxOTIuODggNzQuMTA5OSAxOTEuMyA3NC4xMDk5IDE4OS41OFYxODcuNDZDNzQuMTA5OSAxODUuNzUgNzQuOTE5OSAxODQuMTcgNzcuODk5OSAxODQuMTdDODAuODc5OSAxODQuMTcgODEuNjk5OSAxODUuNzUgODEuNjk5OSAxODcuNDZWMTg5LjU4QzgxLjcwOTkgMTkxLjMgODAuODk5OSAxOTIuODggNzcuOTA5OSAxOTIuODhINzcuODk5OVpNNzcuODk5OSAxODUuOTVDNzYuNzM5OSAxODUuOTUgNzYuMjg5OSAxODYuNDUgNzYuMjg5OSAxODcuNFYxODkuNjVDNzYuMjg5OSAxOTAuNTkgNzYuNzM5OSAxOTEuMDkgNzcuODk5OSAxOTEuMDlDNzkuMDU5OSAxOTEuMDkgNzkuNTA5OSAxOTAuNTkgNzkuNTA5OSAxODkuNjVWMTg3LjRDNzkuNTE5OSAxODYuNDUgNzkuMDc5OSAxODYgNzcuOTA5OSAxODZMNzcuODk5OSAxODUuOTVaTTg3LjgzOTkgMTg2LjA5Qzg3LjA0MDggMTg2LjQzOSA4Ni4yNjg2IDE4Ni44NDcgODUuNTI5OSAxODcuMzFWMTkyLjdIODMuMzU5OVYxODQuMzRIODUuMTk5OUw4NS4zNDk5IDE4NS4yN0M4Ni4wNjEgMTg0LjgwMyA4Ni44MzExIDE4NC40MzMgODcuNjM5OSAxODQuMTdMODcuODM5OSAxODYuMDlaTTk2LjU2OTkgMTg5LjkyQzk2LjU2OTkgMTkxLjc4IDk1LjcwOTkgMTkyLjkyIDkzLjY4OTkgMTkyLjkyQzkyLjkwNzcgMTkyLjkwOSA5Mi4xMjggMTkyLjgyOSA5MS4zNTk5IDE5Mi42OFYxOTYuMDlMODkuMTc5OSAxOTYuNDJWMTg0LjQySDkwLjkwOTlMOTEuMTI5OSAxODUuMTJDOTEuOTMzMSAxODQuNTUgOTIuODk0OCAxODQuMjQ1IDkzLjg3OTkgMTg0LjI1Qzk1LjYzOTkgMTg0LjI1IDk2LjU2OTkgMTg1LjI1IDk2LjU2OTkgMTg3LjE1VjE4OS45MlpNOTEuMzU5OSAxOTAuOTJDOTEuOTk0NyAxOTEuMDU1IDkyLjY0MSAxOTEuMTI5IDkzLjI4OTkgMTkxLjE0Qzk0LjA3OTkgMTkxLjE0IDk0LjM3OTkgMTkwLjc4IDk0LjM3OTkgMTkwLjAyVjE4N0M5NC4zNzk5IDE4Ni4zMSA5NC4xMTk5IDE4NS45MyA5My4zMDk5IDE4NS45M0M5Mi41OTI2IDE4NS45NTUgOTEuOTA1MSAxODYuMjIzIDkxLjM1OTkgMTg2LjY5VjE5MC45MloiLz4KPHBhdGggZmlsbD0iIzdCNDJCQyIgZD0iTTEwMi41OCA0Ni45MTAyTDE0MS40MSA2OS4zMzAyVjExNC4xNkwxMDIuNTggOTEuNzUwMlY0Ni45MTAyWiIgY2xpcC1ydWxlPSJldmVub2RkIiBmaWxsLXJ1bGU9ImV2ZW5vZGQiLz4KPHBhdGggZmlsbD0iIzdCNDJCQyIgZD0iTTE0NS42NyA2OS4zMzAyVjExNC4xNkwxODQuNSA5MS43NTAyVjQ2LjkxMDJMMTQ1LjY3IDY5LjMzMDJaIiBjbGlwLXJ1bGU9ImV2ZW5vZGQiIGZpbGwtcnVsZT0iZXZlbm9kZCIvPgo8cGF0aCBmaWxsPSIjN0I0MkJDIiBkPSJNNTkuNSAyMS44Nzk5VjY2LjcxOTlMOTguMzMgODkuMTM5OVY0NC4yOTk5TDU5LjUgMjEuODc5OVoiIGNsaXAtcnVsZT0iZXZlbm9kZCIgZmlsbC1ydWxlPSJldmVub2RkIi8+CjxwYXRoIGZpbGw9IiM3QjQyQkMiIGQ9Ik0xMDIuNTggMTQxLjQ5TDE0MS40MSAxNjMuOTFWMTE5LjM4VjExOS4wOEwxMDIuNTggOTYuNjYwMlYxNDEuNDlaIiBjbGlwLXJ1bGU9ImV2ZW5vZGQiIGZpbGwtcnVsZT0iZXZlbm9kZCIvPgo8L3N2Zz4=;" parent="1" vertex="1">
                    <mxGeometry x="1495.69" y="335.75" width="64.31" height="68" as="geometry"/>
                </mxCell>
                <mxCell id="8" value="CloudOps" style="verticalLabelPosition=bottom;html=1;verticalAlign=top;align=center;strokeColor=none;fillColor=#00BEF2;shape=mxgraph.azure.user;fontSize=14;fontColor=#000000;" parent="1" vertex="1">
                    <mxGeometry x="1470" y="244" width="47.5" height="50" as="geometry"/>
                </mxCell>
                <mxCell id="10" value="VSCode" style="verticalLabelPosition=bottom;html=1;verticalAlign=top;align=center;strokeColor=none;fillColor=#00BEF2;shape=mxgraph.azure.visual_studio_online;fontSize=14;fontColor=#000000;" parent="1" vertex="1">
                    <mxGeometry x="1430" y="340.75" width="50" height="37.5" as="geometry"/>
                </mxCell>
                <mxCell id="ft4ccJNR_fjNTOpSbePP-55" style="edgeStyle=orthogonalEdgeStyle;rounded=0;orthogonalLoop=1;jettySize=auto;html=1;" parent="1" source="12" target="6" edge="1">
                    <mxGeometry relative="1" as="geometry"/>
                </mxCell>
                <mxCell id="27" value="Terraform Apply" style="endArrow=classic;html=1;rounded=0;dashed=1;labelPosition=center;verticalLabelPosition=top;align=center;verticalAlign=bottom;fontSize=13;dashPattern=8 8;strokeWidth=2;" parent="1" edge="1">
                    <mxGeometry x="-0.0421" y="-14" width="50" height="50" relative="1" as="geometry">
                        <mxPoint x="1330" y="370" as="sourcePoint"/>
                        <mxPoint x="1210" y="370" as="targetPoint"/>
                        <mxPoint as="offset"/>
                    </mxGeometry>
                </mxCell>
                <mxCell id="ft4ccJNR_fjNTOpSbePP-56" style="edgeStyle=orthogonalEdgeStyle;rounded=0;orthogonalLoop=1;jettySize=auto;html=1;entryX=0;entryY=0.75;entryDx=0;entryDy=0;" parent="1" source="SL-GG13H3_gjAQ_EnrTm-14" target="18" edge="1">
                    <mxGeometry relative="1" as="geometry"/>
                </mxCell>
                <mxCell id="ft4ccJNR_fjNTOpSbePP-57" value="Pull Docher image" style="edgeLabel;html=1;align=center;verticalAlign=middle;resizable=0;points=[];" parent="ft4ccJNR_fjNTOpSbePP-56" vertex="1" connectable="0">
                    <mxGeometry x="0.7087" y="4" relative="1" as="geometry">
                        <mxPoint x="-19" as="offset"/>
                    </mxGeometry>
                </mxCell>
                <mxCell id="ft4ccJNR_fjNTOpSbePP-58" value=" 10.1.0.0/24" style="fillColor=none;strokeColor=#147EBA;dashed=1;verticalAlign=top;fontStyle=1;fontColor=#147EBA;" parent="1" vertex="1">
                    <mxGeometry x="671.25" y="100" width="100" height="30" as="geometry"/>
                </mxCell>
                <mxCell id="ft4ccJNR_fjNTOpSbePP-59" value="" style="shape=image;verticalLabelPosition=bottom;labelBackgroundColor=default;verticalAlign=top;aspect=fixed;imageAspect=0;image=data:image/svg+xml,PHN2ZyB4bWxucz0iaHR0cDovL3d3dy53My5vcmcvMjAwMC9zdmciIGZpbGw9Im5vbmUiIHZpZXdCb3g9IjAgMCAyNDQgMjU4IiBoZWlnaHQ9IjI1OCIgd2lkdGg9IjI0NCI+CjxwYXRoIGZpbGw9ImJsYWNrIiBkPSJNMzUuNTE5OSAyMDYuOTRIMjUuOTE5OVYyMDEuMjFINTEuNjM5OVYyMDYuOTRINDEuOTk5OVYyMzUuNkgzNS41MTk5VjIwNi45NFoiLz4KPHBhdGggZmlsbD0iYmxhY2siIGQ9Ik01OC40MzAyIDIzMUM2MS4wMzc2IDIzMC45ODYgNjMuNjI4NyAyMzAuNTg5IDY2LjEyMDIgMjI5LjgyTDY3LjEyMDIgMjM0LjU3QzY0LjE1NjYgMjM1LjYzNiA2MS4wMjk4IDIzNi4xNzggNTcuODgwMiAyMzYuMTdDNDkuOTgwMiAyMzYuMTcgNDcuMjQwMiAyMzIuNSA0Ny4yNDAyIDIyNi40NlYyMTkuOEM0Ny4yNDAyIDIxNC40OCA0OS42MjAyIDIwOS45OSA1Ny42NzAyIDIwOS45OUM2NS43MjAyIDIwOS45OSA2Ny41MzAyIDIxNC42OSA2Ny41MzAyIDIyMC4xMVYyMjUuNDhINTMuNTMwMlYyMjYuNzdDNTMuNTIwMiAyMjkuNzcgNTQuNjAwMiAyMzEgNTguNDMwMiAyMzFaTTUzLjUyMDIgMjIwLjQySDYxLjUyMDJWMjE5LjE4QzYxLjUyMDIgMjE2LjggNjAuODAwMiAyMTUuMTggNTcuNzAwMiAyMTUuMThDNTQuNjAwMiAyMTUuMTggNTMuNTIwMiAyMTYuODMgNTMuNTIwMiAyMTkuMThWMjIwLjQyWiIvPgo8cGF0aCBmaWxsPSJibGFjayIgZD0iTTg0LjM1MDYgMjE1LjcxOUM4Mi4wMzcxIDIxNi43NzEgNzkuODA3MyAyMTcuOTk4IDc3LjY4MDYgMjE5LjM4OVYyMzUuNTk5SDcxLjM5MDZWMjEwLjQ0OUg3Ni43MDA2TDc3LjEyMDYgMjEzLjIzOUM3OS4xNjkxIDIxMS44NTMgODEuMzkxNiAyMTAuNzQ0IDgzLjczMDYgMjA5LjkzOUw4NC4zNTA2IDIxNS43MTlaIi8+CjxwYXRoIGZpbGw9ImJsYWNrIiBkPSJNOTkuNzI5NSAyMTUuNzE5Qzk3LjQxOTIgMjE2Ljc3MSA5NS4xOTI3IDIxNy45OTggOTMuMDY5NSAyMTkuMzg5VjIzNS41OTlIODYuNzY5NVYyMTAuNDQ5SDkyLjA4OTVMOTIuNDk5NSAyMTMuMjM5Qzk0LjU0OTEgMjExLjg1NSA5Ni43NzE0IDIxMC43NDYgOTkuMTA5NSAyMDkuOTM5TDk5LjcyOTUgMjE1LjcxOVoiLz4KPHBhdGggZmlsbD0iYmxhY2siIGQ9Ik0xMjAuNzk5IDIzNS41OTlIMTE1LjYzOUwxMTUuMTY5IDIzMy44OTlDMTEyLjkzOCAyMzUuMzQ0IDExMC4zMzcgMjM2LjExNSAxMDcuNjc5IDIzNi4xMTlDMTAzLjA4OSAyMzYuMTE5IDEwMS4xMjkgMjMyLjk2OSAxMDEuMTI5IDIyOC42MjlDMTAxLjEyOSAyMjMuNTE5IDEwMy4zNDkgMjIxLjU1OSAxMDguNDU5IDIyMS41NTlIMTE0LjQ1OVYyMTguOTE5QzExNC40NTkgMjE2LjEyOSAxMTMuNjg5IDIxNS4xNDkgMTA5LjY1OSAyMTUuMTQ5QzEwNy4zMDUgMjE1LjE3MiAxMDQuOTYgMjE1LjQzMyAxMDIuNjU5IDIxNS45MjlMMTAxLjg3OSAyMTEuMTI5QzEwNC42ODkgMjEwLjM0OCAxMDcuNTkyIDIwOS45NDggMTEwLjUwOSAyMDkuOTM5QzExOC40MDkgMjA5LjkzOSAxMjAuNzI5IDIxMi43MjkgMTIwLjcyOSAyMTkuMDI5TDEyMC43OTkgMjM1LjU5OVpNMTE0LjQ5OSAyMjYuMDk5SDEwOS44NDlDMTA3Ljc4OSAyMjYuMDk5IDEwNy4yMTkgMjI2LjY2OSAxMDcuMjE5IDIyOC41NzlDMTA3LjIxOSAyMzAuMzI5IDEwNy43ODkgMjMxLjEwOSAxMDkuNzQ5IDIzMS4xMDlDMTExLjQxNSAyMzEuMDg1IDExMy4wNDkgMjMwLjY0MSAxMTQuNDk5IDIyOS44MTlWMjI2LjA5OVoiLz4KPHBhdGggZmlsbD0iYmxhY2siIGQ9Ik0xNDAuMTU5IDIwNC43MkMxMzguOTczIDIwNC40NjMgMTM3Ljc2MyAyMDQuMzI2IDEzNi41NDkgMjA0LjMxQzEzNC4wNjkgMjA0LjMxIDEzMy43MDkgMjA1LjM5IDEzMy43MDkgMjA3LjMxVjIxMC40NkgxNDAuMTA5TDEzOS43NDkgMjE1LjQ2SDEzMy43NDlWMjM1LjZIMTI3LjQ0OVYyMTUuNDZIMTIzLjQ0OVYyMTAuNDZIMTI3LjQ0OVYyMDYuOTVDMTI3LjQ0OSAyMDEuNzQgMTI5Ljg3OSAxOTkuMTUgMTM1LjQ0OSAxOTkuMTVDMTM3LjI4MSAxOTkuMTQgMTM5LjEwNSAxOTkuMzg2IDE0MC44NjkgMTk5Ljg4TDE0MC4xNTkgMjA0LjcyWiIvPgo8cGF0aCBmaWxsPSJibGFjayIgZD0iTTE1Mi40NSAyMzYuMTE5QzE0My44MyAyMzYuMTE5IDE0MS41IDIzMS4zNjkgMTQxLjUgMjI2LjE5OVYyMTkuODQ5QzE0MS41IDIxNC42ODkgMTQzLjgzIDIwOS45MzkgMTUyLjQ1IDIwOS45MzlDMTYxLjA3IDIwOS45MzkgMTYzLjQ1IDIxNC42ODkgMTYzLjQ1IDIxOS44NDlWMjI2LjE5OUMxNjMuNCAyMzEuMzY5IDE2MS4wOCAyMzYuMTE5IDE1Mi40NSAyMzYuMTE5Wk0xNTIuNDUgMjE1LjMwOUMxNDkuMSAyMTUuMzA5IDE0Ny44IDIxNi44MDkgMTQ3LjggMjE5LjYzOVYyMjYuNDA5QzE0Ny44IDIyOS4yNDkgMTQ5LjEgMjMwLjc0OSAxNTIuNDUgMjMwLjc0OUMxNTUuOCAyMzAuNzQ5IDE1Ny4xIDIyOS4yNDkgMTU3LjEgMjI2LjQwOVYyMTkuNjM5QzE1Ny4xIDIxNi44MDkgMTU1LjgxIDIxNS4zMDkgMTUyLjQ1IDIxNS4zMDlaIi8+CjxwYXRoIGZpbGw9ImJsYWNrIiBkPSJNMTc5LjYxIDIxNS43MTlDMTc3LjI5OSAyMTYuNzY5IDE3NS4wNzIgMjE3Ljk5NiAxNzIuOTUgMjE5LjM4OVYyMzUuNTk5SDE2Ni42NVYyMTAuNDQ5SDE3MkwxNzIuNDEgMjEzLjIzOUMxNzQuNDYgMjExLjg1NSAxNzYuNjgyIDIxMC43NDYgMTc5LjAyIDIwOS45MzlMMTc5LjYxIDIxNS43MTlaIi8+CjxwYXRoIGZpbGw9ImJsYWNrIiBkPSJNMTk2LjkxIDIzNS42VjIxOEMxOTYuOTEgMjE2LjY2IDE5Ni4zNCAyMTYgMTk0LjkxIDIxNkMxOTIuNjAzIDIxNi4yNiAxOTAuMzczIDIxNi45ODEgMTg4LjM1IDIxOC4xMlYyMzUuNkgxODJWMjEwLjQ1SDE4Ni44TDE4Ny40MiAyMTIuNTdDMTkwLjU1NyAyMTEuMDAyIDE5My45ODcgMjEwLjEwNiAxOTcuNDkgMjA5Ljk0QzE5OC40NjEgMjA5Ljg0OSAxOTkuNDM2IDIxMC4wNTcgMjAwLjI4NSAyMTAuNTM2QzIwMS4xMzQgMjExLjAxNSAyMDEuODE2IDIxMS43NDIgMjAyLjI0IDIxMi42MkMyMDUuMzgyIDIxMS4wMTIgMjA4LjgzNCAyMTAuMDk4IDIxMi4zNiAyMDkuOTRDMjE2LjU0IDIwOS45NCAyMTguMDQgMjEyLjg4IDIxOC4wNCAyMTcuMzdWMjM1LjZIMjExLjc0VjIxOEMyMTEuNzQgMjE2LjY2IDIxMS4xNyAyMTYgMjA5Ljc0IDIxNkMyMDcuNDI5IDIxNi4yNCAyMDUuMTk0IDIxNi45NjIgMjAzLjE4IDIxOC4xMlYyMzUuNkgxOTYuOTFaIi8+CjxwYXRoIGZpbGw9ImJsYWNrIiBkPSJNMzIuNTg5OSAxOTIuN1YxODcuODhIMjguMTY5OVYxOTIuN0gyNS45MTk5VjE4MS4xMUgyOC4xNjk5VjE4NkgzMi41ODk5VjE4MS4xNEgzNC44NDk5VjE5Mi43SDMyLjU4OTlaTTQzLjEwOTkgMTkyLjdINDEuMzE5OUw0MS4xNTk5IDE5Mi4xNEM0MC4zODI3IDE5Mi42MjQgMzkuNDg1NCAxOTIuODggMzguNTY5OSAxOTIuODhDMzYuOTY5OSAxOTIuODggMzYuMjk5OSAxOTEuODggMzYuMjk5OSAxOTAuMzlDMzYuMjk5OSAxODguNjggMzcuMDU5OSAxODguMDMgMzguODM5OSAxODguMDNINDAuOTI5OVYxODcuMTZDNDAuOTI5OSAxODYuMjMgNDAuNjU5OSAxODUuOSAzOS4yNTk5IDE4NS45QzM4LjQ1MDMgMTg1LjkxMiAzNy42NDM1IDE4NS45OTkgMzYuODQ5OSAxODYuMTZMMzYuNTc5OSAxODQuNTZDMzcuNTU5MSAxODQuMzAyIDM4LjU2NzMgMTg0LjE3MSAzOS41Nzk5IDE4NC4xN0M0Mi4zMTk5IDE4NC4xNyA0My4xMTk5IDE4NS4wOSA0My4xMTk5IDE4Ny4xN0w0My4xMDk5IDE5Mi43Wk00MC45Mjk5IDE4OS41NEgzOS4zMTk5QzM4LjU5OTkgMTg5LjU0IDM4LjQwOTkgMTg5LjczIDM4LjQwOTkgMTkwLjM3QzM4LjQwOTkgMTkxLjAxIDM4LjU5OTkgMTkxLjIxIDM5LjI3OTkgMTkxLjIxQzM5Ljg1NjUgMTkxLjIwMiA0MC40MjI2IDE5MS4wNTQgNDAuOTI5OSAxOTAuNzhWMTg5LjU0Wk00Ny42Nzk5IDE5Mi44OEM0Ni42NjEzIDE5Mi44NjQgNDUuNjUwNiAxOTIuNjk5IDQ0LjY3OTkgMTkyLjM5TDQ0Ljk3OTkgMTkwLjhDNDUuODI3OSAxOTEuMDI5IDQ2LjcwMTUgMTkxLjE1IDQ3LjU3OTkgMTkxLjE2QzQ4LjU3OTkgMTkxLjE2IDQ4LjY3OTkgMTkwLjk1IDQ4LjY3OTkgMTkwLjMyQzQ4LjY3OTkgMTg5LjY5IDQ4LjU3OTkgMTg5LjU0IDQ3LjE1OTkgMTg5LjIyQzQ1LjAyOTkgMTg4LjcyIDQ0Ljc3OTkgMTg4LjIyIDQ0Ljc3OTkgMTg2LjU5QzQ0Ljc3OTkgMTg0Ljk2IDQ1LjU0OTkgMTg0LjE3IDQ4LjAzOTkgMTg0LjE3QzQ4LjkxOCAxODQuMTY5IDQ5Ljc5MzQgMTg0LjI2NyA1MC42NDk5IDE4NC40Nkw1MC40Mzk5IDE4Ni4xM0M0OS42NDgxIDE4NS45ODEgNDguODQ1NCAxODUuODk4IDQ4LjAzOTkgMTg1Ljg4QzQ3LjA4OTkgMTg1Ljg4IDQ2LjkyOTkgMTg2LjA5IDQ2LjkyOTkgMTg2LjYxQzQ2LjkyOTkgMTg3LjEzIDQ2LjkyOTkgMTg3LjMzIDQ4LjE2OTkgMTg3LjYxQzUwLjU5OTkgMTg4LjIzIDUwLjgyOTkgMTg4LjU0IDUwLjgyOTkgMTkwLjI1QzUwLjgyOTkgMTkxLjk2IDUwLjMwOTkgMTkyLjg4IDQ3LjY3OTkgMTkyLjg4Wk01Ny42Nzk5IDE5Mi43VjE4Ni44NkM1Ny42Nzk5IDE4Ni40MiA1Ny40ODk5IDE4Ni4xOSA1Ni45ODk5IDE4Ni4xOUM1Ni4xOTA5IDE4Ni4yNzYgNTUuNDE2MyAxODYuNTE3IDU0LjcwOTkgMTg2LjlWMTkyLjdINTIuNTE5OVYxODFMNTQuNjk5OSAxODEuMzJWMTg1QzU1LjY5NjQgMTg0LjUxNSA1Ni43ODI3IDE4NC4yNDMgNTcuODg5OSAxODQuMkM1OS4zMzk5IDE4NC4yIDU5Ljg4OTkgMTg1LjIgNTkuODg5OSAxODYuNjdWMTkyLjczTDU3LjY3OTkgMTkyLjdaTTYxLjY3OTkgMTgzLjE1VjE4MS4xNUg2My44NTk5VjE4My4xNUg2MS42Nzk5Wk02MS42Nzk5IDE5Mi43VjE4NC4zNEg2My44NTk5VjE5Mi43SDYxLjY3OTlaTTY1LjU5OTkgMTg0LjQxQzY1LjU5OTkgMTgyLjMxIDY2Ljg2OTkgMTgxLjA5IDY5LjgzOTkgMTgxLjA5QzcwLjkzMSAxODEuMDkgNzIuMDE4NCAxODEuMjE4IDczLjA3OTkgMTgxLjQ3TDcyLjgyOTkgMTgzLjM0QzcxLjg2OTIgMTgzLjE2NiA3MC44OTYxIDE4My4wNjkgNjkuOTE5OSAxODMuMDVDNjguMzU5OSAxODMuMDUgNjcuODU5OSAxODMuNTcgNjcuODU5OSAxODQuNzlWMTg5LjE4QzY3Ljg1OTkgMTkwLjQgNjguMzU5OSAxOTAuOTIgNjkuOTE5OSAxOTAuOTJDNzAuODk2MSAxOTAuOTAxIDcxLjg2OTIgMTkwLjgwNCA3Mi44Mjk5IDE5MC42M0w3My4wNzk5IDE5Mi41QzcyLjAxODQgMTkyLjc1MiA3MC45MzEgMTkyLjg4IDY5LjgzOTkgMTkyLjg4QzY2LjgzOTkgMTkyLjg4IDY1LjU5OTkgMTkxLjY2IDY1LjU5OTkgMTg5LjU2VjE4NC40MVpNNzcuODk5OSAxOTIuODhDNzQuODk5OSAxOTIuODggNzQuMTA5OSAxOTEuMyA3NC4xMDk5IDE4OS41OFYxODcuNDZDNzQuMTA5OSAxODUuNzUgNzQuOTE5OSAxODQuMTcgNzcuODk5OSAxODQuMTdDODAuODc5OSAxODQuMTcgODEuNjk5OSAxODUuNzUgODEuNjk5OSAxODcuNDZWMTg5LjU4QzgxLjcwOTkgMTkxLjMgODAuODk5OSAxOTIuODggNzcuOTA5OSAxOTIuODhINzcuODk5OVpNNzcuODk5OSAxODUuOTVDNzYuNzM5OSAxODUuOTUgNzYuMjg5OSAxODYuNDUgNzYuMjg5OSAxODcuNFYxODkuNjVDNzYuMjg5OSAxOTAuNTkgNzYuNzM5OSAxOTEuMDkgNzcuODk5OSAxOTEuMDlDNzkuMDU5OSAxOTEuMDkgNzkuNTA5OSAxOTAuNTkgNzkuNTA5OSAxODkuNjVWMTg3LjRDNzkuNTE5OSAxODYuNDUgNzkuMDc5OSAxODYgNzcuOTA5OSAxODZMNzcuODk5OSAxODUuOTVaTTg3LjgzOTkgMTg2LjA5Qzg3LjA0MDggMTg2LjQzOSA4Ni4yNjg2IDE4Ni44NDcgODUuNTI5OSAxODcuMzFWMTkyLjdIODMuMzU5OVYxODQuMzRIODUuMTk5OUw4NS4zNDk5IDE4NS4yN0M4Ni4wNjEgMTg0LjgwMyA4Ni44MzExIDE4NC40MzMgODcuNjM5OSAxODQuMTdMODcuODM5OSAxODYuMDlaTTk2LjU2OTkgMTg5LjkyQzk2LjU2OTkgMTkxLjc4IDk1LjcwOTkgMTkyLjkyIDkzLjY4OTkgMTkyLjkyQzkyLjkwNzcgMTkyLjkwOSA5Mi4xMjggMTkyLjgyOSA5MS4zNTk5IDE5Mi42OFYxOTYuMDlMODkuMTc5OSAxOTYuNDJWMTg0LjQySDkwLjkwOTlMOTEuMTI5OSAxODUuMTJDOTEuOTMzMSAxODQuNTUgOTIuODk0OCAxODQuMjQ1IDkzLjg3OTkgMTg0LjI1Qzk1LjYzOTkgMTg0LjI1IDk2LjU2OTkgMTg1LjI1IDk2LjU2OTkgMTg3LjE1VjE4OS45MlpNOTEuMzU5OSAxOTAuOTJDOTEuOTk0NyAxOTEuMDU1IDkyLjY0MSAxOTEuMTI5IDkzLjI4OTkgMTkxLjE0Qzk0LjA3OTkgMTkxLjE0IDk0LjM3OTkgMTkwLjc4IDk0LjM3OTkgMTkwLjAyVjE4N0M5NC4zNzk5IDE4Ni4zMSA5NC4xMTk5IDE4NS45MyA5My4zMDk5IDE4NS45M0M5Mi41OTI2IDE4NS45NTUgOTEuOTA1MSAxODYuMjIzIDkxLjM1OTkgMTg2LjY5VjE5MC45MloiLz4KPHBhdGggZmlsbD0iIzdCNDJCQyIgZD0iTTEwMi41OCA0Ni45MTAyTDE0MS40MSA2OS4zMzAyVjExNC4xNkwxMDIuNTggOTEuNzUwMlY0Ni45MTAyWiIgY2xpcC1ydWxlPSJldmVub2RkIiBmaWxsLXJ1bGU9ImV2ZW5vZGQiLz4KPHBhdGggZmlsbD0iIzdCNDJCQyIgZD0iTTE0NS42NyA2OS4zMzAyVjExNC4xNkwxODQuNSA5MS43NTAyVjQ2LjkxMDJMMTQ1LjY3IDY5LjMzMDJaIiBjbGlwLXJ1bGU9ImV2ZW5vZGQiIGZpbGwtcnVsZT0iZXZlbm9kZCIvPgo8cGF0aCBmaWxsPSIjN0I0MkJDIiBkPSJNNTkuNSAyMS44Nzk5VjY2LjcxOTlMOTguMzMgODkuMTM5OVY0NC4yOTk5TDU5LjUgMjEuODc5OVoiIGNsaXAtcnVsZT0iZXZlbm9kZCIgZmlsbC1ydWxlPSJldmVub2RkIi8+CjxwYXRoIGZpbGw9IiM3QjQyQkMiIGQ9Ik0xMDIuNTggMTQxLjQ5TDE0MS40MSAxNjMuOTFWMTE5LjM4VjExOS4wOEwxMDIuNTggOTYuNjYwMlYxNDEuNDlaIiBjbGlwLXJ1bGU9ImV2ZW5vZGQiIGZpbGwtcnVsZT0iZXZlbm9kZCIvPgo8L3N2Zz4=;" parent="1" vertex="1">
                    <mxGeometry x="1333.85" y="339.75" width="64.31" height="68" as="geometry"/>
                </mxCell>
            </root>
        </mxGraphModel>
    </diagram>
</mxfile>